<?xml version="1.0" standalone="no"?>
<!DOCTYPE svg PUBLIC "-//W3C//DTD SVG 20010904//EN"
 "http://www.w3.org/TR/2001/REC-SVG-20010904/DTD/svg10.dtd">
<svg version="1.0" xmlns="http://www.w3.org/2000/svg"
 width="752.000000pt" height="752.000000pt" viewBox="0 0 752.000000 752.000000"
 preserveAspectRatio="xMidYMid meet">

<g transform="translate(0.000000,752.000000) scale(0.100000,-0.100000)"
fill="#000000" stroke="none">
<path d="M2956 6019 c-284 -37 -602 -149 -769 -272 -31 -23 -120 -88 -197
-145 -136 -100 -214 -179 -204 -207 3 -7 -8 -23 -25 -36 -17 -13 -31 -29 -31
-36 0 -7 -18 -25 -40 -39 -35 -23 -40 -31 -40 -65 0 -22 -4 -39 -9 -39 -21 0
-81 -68 -81 -92 0 -22 -3 -24 -35 -20 -40 5 -75 -18 -75 -49 0 -28 46 -75 97
-99 58 -28 153 -32 260 -11 96 19 105 15 88 -42 -7 -24 -16 -69 -20 -99 -6
-50 -9 -55 -38 -64 -17 -5 -39 -21 -50 -36 -18 -24 -19 -32 -9 -67 7 -22 28
-58 47 -80 18 -23 41 -65 49 -95 15 -51 15 -55 -8 -112 -13 -32 -52 -120 -87
-194 -51 -108 -64 -147 -67 -195 -3 -51 0 -64 19 -89 44 -56 149 -84 197 -51
22 16 22 16 16 -32 -3 -26 -12 -76 -20 -111 -20 -89 -18 -107 14 -139 23 -23
28 -35 24 -63 -5 -46 21 -71 81 -77 l45 -5 -31 -50 c-27 -43 -31 -61 -35 -136
-2 -48 1 -105 7 -127 23 -85 106 -147 234 -176 55 -12 150 -5 234 17 18 5 25
-1 41 -33 11 -21 38 -55 59 -75 38 -36 202 -141 321 -206 85 -46 89 -55 62
-158 -12 -47 -18 -94 -15 -105 4 -11 -6 -68 -21 -127 -16 -63 -28 -136 -28
-177 l-1 -70 36 -12 c146 -48 519 -45 949 8 446 54 1235 208 1585 309 262 76
497 182 581 264 91 88 83 110 -126 343 -202 225 -304 320 -535 493 -215 162
-325 230 -370 230 -12 0 -30 9 -40 20 -10 11 -41 34 -69 52 -28 17 -53 33 -55
35 -3 2 5 10 16 18 29 20 47 111 39 190 -5 51 -62 286 -81 335 -4 12 3 15 34
15 48 0 85 19 100 52 15 32 9 39 -50 64 -145 63 -278 327 -324 640 -29 198
-92 352 -213 524 -151 213 -413 398 -630 445 -233 51 -391 70 -567 69 -93 -1
-201 -6 -239 -10z m1547 -2303 c-10 -13 -93 -122 -184 -242 -188 -248 -313
-403 -419 -519 -122 -134 -372 -425 -449 -522 -40 -51 -77 -93 -81 -93 -12 0
-66 65 -96 115 -24 41 -26 53 -21 113 5 63 10 74 75 172 55 84 105 140 245
276 96 95 253 237 349 316 95 79 180 152 188 162 30 37 214 159 303 201 108
51 115 53 90 21z m-1229 -1382 l46 -51 -44 -94 c-24 -52 -51 -115 -61 -141 -9
-27 -21 -48 -25 -48 -5 0 -12 17 -16 38 -16 95 -37 188 -44 202 -6 10 -2 22
10 35 26 29 60 96 60 119 0 18 2 18 13 6 8 -8 35 -38 61 -66z"/>
</g>
</svg>
